<svg width="146" height="30" viewBox="0 0 146 30" fill="none" xmlns="http://www.w3.org/2000/svg">
<path d="M14.4121 -0.00289917H28.7475V14.3325H14.4121V-0.00289917Z" fill="url(#paint0_linear_40000777_32655)"/>
<path d="M10.0829 3.73865H0.75V27.9951H25.0065V18.6627H10.0829V3.73865Z" fill="url(#paint1_linear_40000777_32655)"/>
<path d="M35.4873 19.1425V2.65597H41.6698C42.9363 2.65597 43.9989 2.87601 44.8576 3.31608C45.7216 3.75615 46.3737 4.37332 46.8138 5.1676C47.2592 5.95651 47.4819 6.8769 47.4819 7.92877C47.4819 8.98602 47.2565 9.90373 46.8057 10.6819C46.3603 11.4547 45.7029 12.0531 44.8334 12.4771C43.964 12.8957 42.8961 13.105 41.6295 13.105H37.2261V10.6255H41.227C41.9676 10.6255 42.5741 10.5236 43.0463 10.3196C43.5186 10.1103 43.8674 9.80712 44.0928 9.40999C44.3236 9.00748 44.439 8.51375 44.439 7.92877C44.439 7.3438 44.3236 6.8447 44.0928 6.43146C43.8621 6.01286 43.5105 5.69622 43.0383 5.48155C42.566 5.26152 41.9569 5.1515 41.2109 5.1515H38.4739V19.1425H35.4873ZM44.0043 11.6721L48.0857 19.1425H44.7529L40.744 11.6721H44.0043Z" fill="#0A0E5F"/>
<path d="M53.1096 2.65597V19.1425H50.1231V2.65597H53.1096Z" fill="#0A0E5F"/>
<path d="M65.3035 7.18817C65.2284 6.48513 64.9117 5.93772 64.3536 5.54595C63.8008 5.15418 63.0817 4.9583 62.1962 4.9583C61.5736 4.9583 61.0396 5.05221 60.5942 5.24005C60.1488 5.42788 59.808 5.6828 59.5718 6.00481C59.3357 6.32681 59.215 6.69443 59.2096 7.10767C59.2096 7.45114 59.2874 7.74899 59.443 8.00122C59.604 8.25346 59.8214 8.46813 60.0951 8.64523C60.3688 8.81697 60.672 8.96187 61.0048 9.07993C61.3375 9.198 61.6729 9.29729 62.011 9.37779L63.5566 9.76419C64.1792 9.90909 64.7776 10.105 65.3518 10.3518C65.9314 10.5987 66.4493 10.91 66.9055 11.2857C67.367 11.6613 67.7319 12.1148 68.0003 12.6461C68.2686 13.1774 68.4028 13.8 68.4028 14.5137C68.4028 15.4797 68.1559 16.3304 67.6622 17.0656C67.1684 17.7955 66.4547 18.367 65.5209 18.7803C64.5924 19.1881 63.4681 19.3921 62.1479 19.3921C60.8652 19.3921 59.7516 19.1935 58.8071 18.7964C57.8679 18.3992 57.1327 17.8196 56.6014 17.0576C56.0754 16.2955 55.791 15.367 55.7481 14.2722H58.6863C58.7293 14.8465 58.9064 15.3241 59.2176 15.7051C59.5289 16.0862 59.9341 16.3706 60.4332 16.5585C60.9377 16.7463 61.5012 16.8402 62.1237 16.8402C62.7731 16.8402 63.342 16.7436 63.8303 16.5504C64.3241 16.3518 64.7105 16.0781 64.9895 15.7293C65.2686 15.3751 65.4108 14.9619 65.4162 14.4896C65.4108 14.0602 65.2847 13.706 65.0378 13.427C64.791 13.1425 64.4448 12.9064 63.9994 12.7186C63.5593 12.5254 63.0441 12.3536 62.4538 12.2034L60.5781 11.7204C59.2203 11.3715 58.147 10.8429 57.3581 10.1345C56.5745 9.42072 56.1828 8.4735 56.1828 7.29282C56.1828 6.32144 56.4457 5.47082 56.9717 4.74094C57.503 4.01107 58.2248 3.44488 59.1371 3.04238C60.0495 2.63451 61.0826 2.43057 62.2364 2.43057C63.4064 2.43057 64.4314 2.63451 65.3116 3.04238C66.1971 3.44488 66.892 4.0057 67.3965 4.72484C67.901 5.43862 68.1613 6.25972 68.1774 7.18817H65.3035Z" fill="#0A0E5F"/>
<path d="M70.5256 19.1425V2.65597H81.2483C81.2483 4.03866 80.1274 5.15955 78.7447 5.15955H73.5122V9.63539H79.3975V12.139H73.5122V16.639H78.8091C80.1918 16.639 81.3127 17.7598 81.3127 19.1425H70.5256Z" fill="#0A0E5F"/>
<path d="M93.9906 7.92072C93.8564 7.48602 93.6713 7.09693 93.4352 6.75346C93.2044 6.40463 92.9253 6.10677 92.5979 5.85991C92.2759 5.61304 91.9056 5.42788 91.487 5.30445C91.0684 5.17565 90.6123 5.11125 90.1185 5.11125C89.233 5.11125 88.4441 5.33397 87.7518 5.7794C87.0595 6.22484 86.5148 6.87958 86.1176 7.74362C85.7259 8.6023 85.53 9.64881 85.53 10.8832C85.53 12.1282 85.7259 13.1828 86.1176 14.0468C86.5094 14.9109 87.0541 15.5683 87.7518 16.0191C88.4495 16.4645 89.2599 16.6873 90.1829 16.6873C91.0201 16.6873 91.7446 16.5263 92.3565 16.2043C92.9736 15.8822 93.4486 15.4261 93.7813 14.8357C94.114 14.24 94.2804 13.5424 94.2804 12.7427L94.9566 12.8474H90.4808V10.5128H97.1704V12.4932C97.1704 13.9046 96.8699 15.1255 96.2688 16.156C95.6677 17.1864 94.8412 17.9806 93.7894 18.5388C92.7375 19.0915 91.53 19.3679 90.1668 19.3679C88.648 19.3679 87.3144 19.0271 86.1659 18.3456C85.0228 17.6586 84.1293 16.6846 83.4853 15.4234C82.8466 14.1568 82.5273 12.6542 82.5273 10.9154C82.5273 9.58441 82.7151 8.39568 83.0908 7.34917C83.4718 6.30266 84.0032 5.41447 84.6847 4.68459C85.3663 3.94935 86.1659 3.39121 87.0836 3.01018C88.0014 2.62377 88.9996 2.43057 90.0783 2.43057C90.9906 2.43057 91.8412 2.56474 92.6301 2.83308C93.4191 3.09605 94.1194 3.47172 94.7312 3.96009C95.3484 4.44846 95.8556 5.02806 96.2527 5.6989C96.6498 6.36974 96.9101 7.11035 97.0335 7.92072H93.9906Z" fill="#0A0E5F"/>
<path d="M112.879 5.15955C111.497 5.15955 110.376 4.03866 110.376 2.65597H123.53V5.15955H118.434V19.1425H115.471V5.15955H112.879Z" fill="#0A0E5F"/>
<path d="M125.202 19.1425V2.65597H135.924C135.924 4.01161 134.83 5.11321 133.475 5.12266L128.188 5.15955V9.63539H134.074V12.139H128.188V16.639H133.485C134.868 16.639 135.989 17.7598 135.989 19.1425H125.202Z" fill="#0A0E5F"/>
<path fill-rule="evenodd" clip-rule="evenodd" d="M97.3451 19.1425H100.533L101.896 15.0772L102.701 12.6783L104.928 6.03701H105.057L107.288 12.6783L108.095 15.0772L109.46 19.1425H112.648L106.836 2.65597H103.149L97.3451 19.1425Z" fill="#0A0E5F"/>
<path d="M106.51 14.069C106.51 14.9036 105.833 15.5803 104.999 15.5803C104.164 15.5803 103.487 14.9036 103.487 14.069C103.487 13.2343 104.164 12.5577 104.999 12.5577C105.833 12.5577 106.51 13.2343 106.51 14.069Z" fill="#FF6200"/>
<path d="M37.082 27.5459H35.511V22.455H37.1516C37.6455 22.455 38.0681 22.5569 38.4194 22.7607C38.7707 22.9629 39.04 23.2538 39.2273 23.6333C39.4145 24.0111 39.5082 24.4635 39.5082 24.9905C39.5082 25.5208 39.4137 25.9774 39.2248 26.3602C39.0359 26.7413 38.7608 27.0347 38.3995 27.2401C38.0382 27.444 37.5991 27.5459 37.082 27.5459ZM36.1275 26.999H37.0423C37.4632 26.999 37.812 26.9178 38.0888 26.7554C38.3655 26.593 38.5719 26.3618 38.7077 26.0619C38.8436 25.7619 38.9116 25.4048 38.9116 24.9905C38.9116 24.5795 38.8445 24.2257 38.7102 23.9291C38.576 23.6308 38.3755 23.4021 38.1087 23.243C37.8419 23.0822 37.5096 23.0019 37.1119 23.0019H36.1275V26.999ZM40.4627 27.5459V23.7277H41.0494V27.5459H40.4627ZM40.761 23.0914C40.6467 23.0914 40.5481 23.0524 40.4652 22.9745C40.384 22.8966 40.3434 22.803 40.3434 22.6936C40.3434 22.5843 40.384 22.4906 40.4652 22.4127C40.5481 22.3348 40.6467 22.2959 40.761 22.2959C40.8754 22.2959 40.9731 22.3348 41.0543 22.4127C41.1372 22.4906 41.1786 22.5843 41.1786 22.6936C41.1786 22.803 41.1372 22.8966 41.0543 22.9745C40.9731 23.0524 40.8754 23.0914 40.761 23.0914ZM43.665 29.0573C43.3817 29.0573 43.1381 29.0208 42.9342 28.9479C42.7304 28.8766 42.5605 28.7822 42.4246 28.6645C42.2904 28.5485 42.1835 28.4242 42.104 28.2916L42.5713 27.9635C42.6243 28.0331 42.6914 28.1127 42.7726 28.2021C42.8538 28.2933 42.9649 28.372 43.1057 28.4383C43.2483 28.5062 43.4347 28.5402 43.665 28.5402C43.9733 28.5402 44.2277 28.4656 44.4282 28.3165C44.6287 28.1673 44.729 27.9337 44.729 27.6155V26.8399H44.6792C44.6362 26.9095 44.5748 26.9957 44.4953 27.0985C44.4174 27.1995 44.3047 27.2899 44.1572 27.3694C44.0114 27.4473 43.8142 27.4862 43.5656 27.4862C43.2574 27.4862 42.9806 27.4133 42.7354 27.2675C42.4917 27.1217 42.2987 26.9095 42.1562 26.6311C42.0153 26.3527 41.9449 26.0146 41.9449 25.6169C41.9449 25.2258 42.0136 24.8853 42.1512 24.5953C42.2887 24.3036 42.4801 24.0782 42.7254 23.9191C42.9707 23.7584 43.2541 23.678 43.5756 23.678C43.8241 23.678 44.0213 23.7194 44.1672 23.8023C44.3147 23.8835 44.4273 23.9763 44.5052 24.0807C44.5848 24.1834 44.6461 24.268 44.6892 24.3343H44.7488V23.7277H45.3156V27.6553C45.3156 27.9834 45.241 28.2502 45.0919 28.4557C44.9444 28.6628 44.7455 28.8145 44.4953 28.9106C44.2467 29.0084 43.97 29.0573 43.665 29.0573ZM43.6452 26.9593C43.8805 26.9593 44.0793 26.9054 44.2417 26.7977C44.4041 26.69 44.5276 26.535 44.6121 26.3328C44.6966 26.1307 44.7389 25.8887 44.7389 25.607C44.7389 25.3319 44.6975 25.0891 44.6146 24.8786C44.5318 24.6682 44.4091 24.5033 44.2467 24.384C44.0843 24.2646 43.8838 24.205 43.6452 24.205C43.3966 24.205 43.1894 24.268 43.0237 24.3939C42.8596 24.5199 42.7362 24.6889 42.6533 24.901C42.5721 25.1131 42.5315 25.3485 42.5315 25.607C42.5315 25.8721 42.5729 26.1066 42.6558 26.3105C42.7403 26.5126 42.8646 26.6717 43.0287 26.7877C43.1944 26.9021 43.3999 26.9593 43.6452 26.9593ZM46.3895 27.5459V23.7277H46.9761V27.5459H46.3895ZM46.6878 23.0914C46.5734 23.0914 46.4748 23.0524 46.392 22.9745C46.3108 22.8966 46.2702 22.803 46.2702 22.6936C46.2702 22.5843 46.3108 22.4906 46.392 22.4127C46.4748 22.3348 46.5734 22.2959 46.6878 22.2959C46.8021 22.2959 46.8999 22.3348 46.9811 22.4127C47.064 22.4906 47.1054 22.5843 47.1054 22.6936C47.1054 22.803 47.064 22.8966 46.9811 22.9745C46.8999 23.0524 46.8021 23.0914 46.6878 23.0914ZM49.7111 23.7277V24.2249H47.7324V23.7277H49.7111ZM48.3091 22.8129H48.8958V26.4521C48.8958 26.6179 48.9198 26.7422 48.9679 26.825C49.0176 26.9062 49.0806 26.9609 49.1568 26.9891C49.2347 27.0156 49.3167 27.0289 49.4029 27.0289C49.4675 27.0289 49.5205 27.0255 49.562 27.0189C49.6034 27.0106 49.6365 27.004 49.6614 26.999L49.7807 27.526C49.7409 27.5409 49.6854 27.5558 49.6142 27.5708C49.5429 27.5873 49.4526 27.5956 49.3432 27.5956C49.1775 27.5956 49.0151 27.56 48.856 27.4887C48.6986 27.4175 48.5676 27.3089 48.4632 27.1631C48.3605 27.0173 48.3091 26.8333 48.3091 26.6112V22.8129ZM51.7172 27.6354C51.4752 27.6354 51.2556 27.5898 51.0584 27.4987C50.8612 27.4059 50.7046 27.2725 50.5886 27.0985C50.4726 26.9228 50.4146 26.7107 50.4146 26.4621C50.4146 26.2433 50.4577 26.066 50.5439 25.9301C50.63 25.7926 50.7452 25.6849 50.8894 25.607C51.0336 25.5291 51.1926 25.4711 51.3667 25.433C51.5423 25.3932 51.7188 25.3617 51.8961 25.3385C52.1281 25.3087 52.3162 25.2863 52.4604 25.2714C52.6062 25.2548 52.7123 25.2275 52.7786 25.1894C52.8465 25.1512 52.8805 25.085 52.8805 24.9905V24.9706C52.8805 24.7253 52.8134 24.5348 52.6792 24.3989C52.5466 24.263 52.3452 24.195 52.0751 24.195C51.795 24.195 51.5755 24.2564 51.4164 24.379C51.2573 24.5016 51.1454 24.6325 51.0808 24.7718L50.524 24.5729C50.6234 24.3409 50.756 24.1602 50.9217 24.031C51.0891 23.9001 51.2714 23.8089 51.4686 23.7575C51.6674 23.7045 51.863 23.678 52.0552 23.678C52.1779 23.678 52.3187 23.6929 52.4778 23.7227C52.6386 23.7509 52.7935 23.8097 52.9426 23.8992C53.0935 23.9887 53.2186 24.1238 53.318 24.3044C53.4174 24.4851 53.4672 24.727 53.4672 25.0303V27.5459H52.8805V27.0289H52.8507C52.8109 27.1117 52.7446 27.2004 52.6518 27.2948C52.559 27.3893 52.4355 27.4697 52.2814 27.536C52.1273 27.6022 51.9392 27.6354 51.7172 27.6354ZM51.8066 27.1084C52.0386 27.1084 52.2342 27.0628 52.3933 26.9717C52.554 26.8805 52.675 26.7629 52.7562 26.6187C52.8391 26.4745 52.8805 26.3229 52.8805 26.1638V25.6269C52.8556 25.6567 52.801 25.684 52.7164 25.7089C52.6336 25.7321 52.5375 25.7528 52.4281 25.771C52.3204 25.7876 52.2151 25.8025 52.1124 25.8158C52.0113 25.8274 51.9293 25.8373 51.8663 25.8456C51.7138 25.8655 51.5713 25.8978 51.4387 25.9426C51.3078 25.9856 51.2018 26.0511 51.1206 26.1389C51.041 26.2251 51.0012 26.3428 51.0012 26.4919C51.0012 26.6958 51.0766 26.8499 51.2275 26.9543C51.3799 27.057 51.573 27.1084 51.8066 27.1084ZM55.1246 22.455V27.5459H54.5379V22.455H55.1246ZM62.3439 24.0459H61.7275C61.691 23.8686 61.6272 23.7128 61.536 23.5786C61.4466 23.4443 61.3372 23.3316 61.2079 23.2405C61.0803 23.1477 60.9386 23.0781 60.7828 23.0317C60.6271 22.9853 60.4647 22.9621 60.2956 22.9621C59.9874 22.9621 59.7082 23.04 59.4579 23.1958C59.2093 23.3515 59.0113 23.5811 58.8638 23.8843C58.718 24.1876 58.6451 24.5596 58.6451 25.0004C58.6451 25.4413 58.718 25.8133 58.8638 26.1166C59.0113 26.4198 59.2093 26.6494 59.4579 26.8051C59.7082 26.9609 59.9874 27.0388 60.2956 27.0388C60.4647 27.0388 60.6271 27.0156 60.7828 26.9692C60.9386 26.9228 61.0803 26.854 61.2079 26.7629C61.3372 26.6701 61.4466 26.5566 61.536 26.4223C61.6272 26.2864 61.691 26.1307 61.7275 25.955H62.3439C62.2975 26.2152 62.213 26.448 62.0904 26.6535C61.9677 26.859 61.8153 27.0338 61.633 27.178C61.4507 27.3205 61.246 27.4291 61.019 27.5036C60.7936 27.5782 60.5525 27.6155 60.2956 27.6155C59.8614 27.6155 59.4753 27.5094 59.1373 27.2973C58.7992 27.0852 58.5332 26.7836 58.3393 26.3925C58.1454 26.0014 58.0485 25.5374 58.0485 25.0004C58.0485 24.4635 58.1454 23.9995 58.3393 23.6084C58.5332 23.2173 58.7992 22.9157 59.1373 22.7036C59.4753 22.4914 59.8614 22.3854 60.2956 22.3854C60.5525 22.3854 60.7936 22.4227 61.019 22.4972C61.246 22.5718 61.4507 22.6812 61.633 22.8254C61.8153 22.9679 61.9677 23.1419 62.0904 23.3474C62.213 23.5512 62.2975 23.7841 62.3439 24.0459ZM64.3841 27.6354C64.1422 27.6354 63.9226 27.5898 63.7254 27.4987C63.5282 27.4059 63.3716 27.2725 63.2556 27.0985C63.1396 26.9228 63.0816 26.7107 63.0816 26.4621C63.0816 26.2433 63.1247 26.066 63.2108 25.9301C63.297 25.7926 63.4122 25.6849 63.5564 25.607C63.7006 25.5291 63.8596 25.4711 64.0336 25.433C64.2093 25.3932 64.3858 25.3617 64.5631 25.3385C64.7951 25.3087 64.9832 25.2863 65.1274 25.2714C65.2732 25.2548 65.3793 25.2275 65.4456 25.1894C65.5135 25.1512 65.5475 25.085 65.5475 24.9905V24.9706C65.5475 24.7253 65.4804 24.5348 65.3461 24.3989C65.2136 24.263 65.0122 24.195 64.7421 24.195C64.462 24.195 64.2425 24.2564 64.0834 24.379C63.9243 24.5016 63.8124 24.6325 63.7478 24.7718L63.191 24.5729C63.2904 24.3409 63.423 24.1602 63.5887 24.031C63.7561 23.9001 63.9384 23.8089 64.1356 23.7575C64.3344 23.7045 64.53 23.678 64.7222 23.678C64.8448 23.678 64.9857 23.6929 65.1448 23.7227C65.3055 23.7509 65.4605 23.8097 65.6096 23.8992C65.7604 23.9887 65.8856 24.1238 65.985 24.3044C66.0844 24.4851 66.1341 24.727 66.1341 25.0303V27.5459H65.5475V27.0289H65.5177C65.4779 27.1117 65.4116 27.2004 65.3188 27.2948C65.226 27.3893 65.1025 27.4697 64.9484 27.536C64.7943 27.6022 64.6062 27.6354 64.3841 27.6354ZM64.4736 27.1084C64.7056 27.1084 64.9012 27.0628 65.0603 26.9717C65.221 26.8805 65.342 26.7629 65.4232 26.6187C65.5061 26.4745 65.5475 26.3229 65.5475 26.1638V25.6269C65.5226 25.6567 65.468 25.684 65.3834 25.7089C65.3006 25.7321 65.2045 25.7528 65.0951 25.771C64.9874 25.7876 64.8821 25.8025 64.7794 25.8158C64.6783 25.8274 64.5963 25.8373 64.5333 25.8456C64.3808 25.8655 64.2383 25.8978 64.1057 25.9426C63.9748 25.9856 63.8688 26.0511 63.7876 26.1389C63.708 26.2251 63.6682 26.3428 63.6682 26.4919C63.6682 26.6958 63.7436 26.8499 63.8944 26.9543C64.0469 27.057 64.24 27.1084 64.4736 27.1084ZM67.2049 28.9777V23.7277H67.7717V24.3343H67.8413C67.8844 24.268 67.944 24.1834 68.0202 24.0807C68.0981 23.9763 68.2092 23.8835 68.3533 23.8023C68.4992 23.7194 68.6964 23.678 68.945 23.678C69.2665 23.678 69.5498 23.7584 69.7951 23.9191C70.0404 24.0799 70.2318 24.3077 70.3693 24.6027C70.5069 24.8977 70.5756 25.2457 70.5756 25.6468C70.5756 26.0511 70.5069 26.4016 70.3693 26.6982C70.2318 26.9932 70.0412 27.2219 69.7976 27.3843C69.554 27.5451 69.2731 27.6254 68.9549 27.6254C68.7096 27.6254 68.5133 27.5848 68.3658 27.5036C68.2183 27.4208 68.1048 27.3271 68.0252 27.2227C67.9457 27.1167 67.8844 27.0289 67.8413 26.9593H67.7915V28.9777H67.2049ZM67.7816 25.6368C67.7816 25.9252 67.8239 26.1795 67.9084 26.3999C67.9929 26.6187 68.1164 26.7902 68.2788 26.9145C68.4412 27.0371 68.64 27.0985 68.8754 27.0985C69.1206 27.0985 69.3253 27.0338 69.4893 26.9046C69.6551 26.7736 69.7794 26.598 69.8622 26.3776C69.9467 26.1555 69.989 25.9086 69.989 25.6368C69.989 25.3683 69.9476 25.1264 69.8647 24.911C69.7835 24.6939 69.66 24.5223 69.4943 24.3964C69.3303 24.2688 69.1239 24.205 68.8754 24.205C68.6367 24.205 68.4362 24.2655 68.2738 24.3865C68.1114 24.5058 67.9888 24.6731 67.9059 24.8886C67.823 25.1024 67.7816 25.3518 67.7816 25.6368ZM71.4705 27.5459V23.7277H72.0572V27.5459H71.4705ZM71.7688 23.0914C71.6545 23.0914 71.5559 23.0524 71.473 22.9745C71.3918 22.8966 71.3512 22.803 71.3512 22.6936C71.3512 22.5843 71.3918 22.4906 71.473 22.4127C71.5559 22.3348 71.6545 22.2959 71.7688 22.2959C71.8832 22.2959 71.9809 22.3348 72.0621 22.4127C72.145 22.4906 72.1864 22.5843 72.1864 22.6936C72.1864 22.803 72.145 22.8966 72.0621 22.9745C71.9809 23.0524 71.8832 23.0914 71.7688 23.0914ZM74.7922 23.7277V24.2249H72.8135V23.7277H74.7922ZM73.3902 22.8129H73.9768V26.4521C73.9768 26.6179 74.0009 26.7422 74.0489 26.825C74.0986 26.9062 74.1616 26.9609 74.2378 26.9891C74.3157 27.0156 74.3978 27.0289 74.4839 27.0289C74.5486 27.0289 74.6016 27.0255 74.643 27.0189C74.6845 27.0106 74.7176 27.004 74.7425 26.999L74.8618 27.526C74.822 27.5409 74.7665 27.5558 74.6952 27.5708C74.624 27.5873 74.5336 27.5956 74.4243 27.5956C74.2586 27.5956 74.0961 27.56 73.9371 27.4887C73.7796 27.4175 73.6487 27.3089 73.5443 27.1631C73.4416 27.0173 73.3902 26.8333 73.3902 26.6112V22.8129ZM76.7982 27.6354C76.5563 27.6354 76.3367 27.5898 76.1395 27.4987C75.9423 27.4059 75.7857 27.2725 75.6697 27.0985C75.5537 26.9228 75.4956 26.7107 75.4956 26.4621C75.4956 26.2433 75.5387 26.066 75.6249 25.9301C75.7111 25.7926 75.8263 25.6849 75.9704 25.607C76.1146 25.5291 76.2737 25.4711 76.4477 25.433C76.6234 25.3932 76.7999 25.3617 76.9772 25.3385C77.2092 25.3087 77.3973 25.2863 77.5415 25.2714C77.6873 25.2548 77.7934 25.2275 77.8596 25.1894C77.9276 25.1512 77.9616 25.085 77.9616 24.9905V24.9706C77.9616 24.7253 77.8944 24.5348 77.7602 24.3989C77.6276 24.263 77.4263 24.195 77.1562 24.195C76.8761 24.195 76.6565 24.2564 76.4974 24.379C76.3383 24.5016 76.2265 24.6325 76.1618 24.7718L75.605 24.5729C75.7045 24.3409 75.837 24.1602 76.0028 24.031C76.1701 23.9001 76.3524 23.8089 76.5496 23.7575C76.7485 23.7045 76.944 23.678 77.1363 23.678C77.2589 23.678 77.3998 23.6929 77.5589 23.7227C77.7196 23.7509 77.8746 23.8097 78.0237 23.8992C78.1745 23.9887 78.2996 24.1238 78.3991 24.3044C78.4985 24.4851 78.5482 24.727 78.5482 25.0303V27.5459H77.9616V27.0289H77.9317C77.892 27.1117 77.8257 27.2004 77.7329 27.2948C77.6401 27.3893 77.5166 27.4697 77.3625 27.536C77.2084 27.6022 77.0203 27.6354 76.7982 27.6354ZM76.8877 27.1084C77.1197 27.1084 77.3153 27.0628 77.4743 26.9717C77.6351 26.8805 77.7561 26.7629 77.8373 26.6187C77.9201 26.4745 77.9616 26.3229 77.9616 26.1638V25.6269C77.9367 25.6567 77.882 25.684 77.7975 25.7089C77.7146 25.7321 77.6185 25.7528 77.5091 25.771C77.4014 25.7876 77.2962 25.8025 77.1934 25.8158C77.0924 25.8274 77.0103 25.8373 76.9474 25.8456C76.7949 25.8655 76.6524 25.8978 76.5198 25.9426C76.3889 25.9856 76.2828 26.0511 76.2016 26.1389C76.1221 26.2251 76.0823 26.3428 76.0823 26.4919C76.0823 26.6958 76.1577 26.8499 76.3085 26.9543C76.461 27.057 76.654 27.1084 76.8877 27.1084ZM80.2056 22.455V27.5459H79.619V22.455H80.2056ZM83.3284 27.5459V22.455H85.0486C85.4463 22.455 85.7728 22.5229 86.028 22.6588C86.2832 22.7931 86.4721 22.9778 86.5947 23.2132C86.7174 23.4485 86.7787 23.7161 86.7787 24.0161C86.7787 24.316 86.7174 24.582 86.5947 24.814C86.4721 25.046 86.284 25.2283 86.0305 25.3609C85.7769 25.4918 85.4529 25.5573 85.0585 25.5573H83.6665V25.0004H85.0386C85.3104 25.0004 85.5291 24.9607 85.6949 24.8811C85.8622 24.8016 85.9832 24.6889 86.0578 24.5431C86.134 24.3956 86.1721 24.2199 86.1721 24.0161C86.1721 23.8122 86.134 23.6341 86.0578 23.4816C85.9816 23.3292 85.8598 23.2115 85.6924 23.1286C85.525 23.0441 85.3038 23.0019 85.0287 23.0019H83.9449V27.5459H83.3284ZM85.7247 25.259L86.9775 27.5459H86.2616L85.0287 25.259H85.7247ZM88.85 27.6354C88.608 27.6354 88.3884 27.5898 88.1912 27.4987C87.994 27.4059 87.8374 27.2725 87.7214 27.0985C87.6054 26.9228 87.5474 26.7107 87.5474 26.4621C87.5474 26.2433 87.5905 26.066 87.6767 25.9301C87.7628 25.7926 87.878 25.6849 88.0222 25.607C88.1664 25.5291 88.3255 25.4711 88.4995 25.433C88.6751 25.3932 88.8516 25.3617 89.0289 25.3385C89.2609 25.3087 89.449 25.2863 89.5932 25.2714C89.7391 25.2548 89.8451 25.2275 89.9114 25.1894C89.9793 25.1512 90.0133 25.085 90.0133 24.9905V24.9706C90.0133 24.7253 89.9462 24.5348 89.812 24.3989C89.6794 24.263 89.478 24.195 89.2079 24.195C88.9279 24.195 88.7083 24.2564 88.5492 24.379C88.3901 24.5016 88.2782 24.6325 88.2136 24.7718L87.6568 24.5729C87.7562 24.3409 87.8888 24.1602 88.0545 24.031C88.2219 23.9001 88.4042 23.8089 88.6014 23.7575C88.8002 23.7045 88.9958 23.678 89.188 23.678C89.3107 23.678 89.4515 23.6929 89.6106 23.7227C89.7714 23.7509 89.9263 23.8097 90.0755 23.8992C90.2263 23.9887 90.3514 24.1238 90.4508 24.3044C90.5502 24.4851 90.6 24.727 90.6 25.0303V27.5459H90.0133V27.0289H89.9835C89.9437 27.1117 89.8774 27.2004 89.7846 27.2948C89.6918 27.3893 89.5684 27.4697 89.4142 27.536C89.2601 27.6022 89.072 27.6354 88.85 27.6354ZM88.9395 27.1084C89.1715 27.1084 89.367 27.0628 89.5261 26.9717C89.6868 26.8805 89.8078 26.7629 89.889 26.6187C89.9719 26.4745 90.0133 26.3229 90.0133 26.1638V25.6269C89.9885 25.6567 89.9338 25.684 89.8493 25.7089C89.7664 25.7321 89.6703 25.7528 89.5609 25.771C89.4532 25.7876 89.348 25.8025 89.2452 25.8158C89.1441 25.8274 89.0621 25.8373 88.9991 25.8456C88.8467 25.8655 88.7041 25.8978 88.5716 25.9426C88.4406 25.9856 88.3346 26.0511 88.2534 26.1389C88.1738 26.2251 88.1341 26.3428 88.1341 26.4919C88.1341 26.6958 88.2095 26.8499 88.3603 26.9543C88.5127 27.057 88.7058 27.1084 88.9395 27.1084ZM91.6707 27.5459V23.7277H92.2574V27.5459H91.6707ZM91.969 23.0914C91.8547 23.0914 91.7561 23.0524 91.6732 22.9745C91.592 22.8966 91.5514 22.803 91.5514 22.6936C91.5514 22.5843 91.592 22.4906 91.6732 22.4127C91.7561 22.3348 91.8547 22.2959 91.969 22.2959C92.0834 22.2959 92.1811 22.3348 92.2623 22.4127C92.3452 22.4906 92.3866 22.5843 92.3866 22.6936C92.3866 22.803 92.3452 22.8966 92.2623 22.9745C92.1811 23.0524 92.0834 23.0914 91.969 23.0914ZM96.0364 24.5828L95.5094 24.732C95.4763 24.6441 95.4274 24.5588 95.3627 24.4759C95.2998 24.3914 95.2136 24.3218 95.1042 24.2671C94.9949 24.2124 94.8548 24.1851 94.6841 24.1851C94.4505 24.1851 94.2557 24.239 94.1 24.3467C93.9458 24.4527 93.8688 24.5878 93.8688 24.7519C93.8688 24.8977 93.9218 25.0129 94.0279 25.0974C94.1339 25.1819 94.2997 25.2523 94.525 25.3087L95.0918 25.4479C95.4332 25.5307 95.6876 25.6575 95.8549 25.8282C96.0223 25.9972 96.106 26.2152 96.106 26.482C96.106 26.7007 96.043 26.8963 95.9171 27.0686C95.7928 27.241 95.6188 27.3769 95.3951 27.4763C95.1713 27.5757 94.9112 27.6254 94.6145 27.6254C94.2251 27.6254 93.9028 27.5409 93.6475 27.3719C93.3923 27.2029 93.2308 26.9559 93.1628 26.6311L93.7196 26.4919C93.7727 26.6974 93.8729 26.8515 94.0204 26.9543C94.1696 27.057 94.3643 27.1084 94.6046 27.1084C94.878 27.1084 95.0951 27.0504 95.2559 26.9344C95.4183 26.8167 95.4995 26.6759 95.4995 26.5118C95.4995 26.3792 95.4531 26.2682 95.3603 26.1787C95.2675 26.0876 95.1249 26.0196 94.9327 25.9749L94.2963 25.8257C93.9467 25.7429 93.6898 25.6144 93.5257 25.4404C93.3633 25.2648 93.2821 25.0452 93.2821 24.7817C93.2821 24.5663 93.3426 24.3757 93.4636 24.21C93.5862 24.0442 93.7528 23.9142 93.9632 23.8197C94.1754 23.7252 94.4157 23.678 94.6841 23.678C95.062 23.678 95.3586 23.7609 95.574 23.9266C95.7911 24.0923 95.9453 24.311 96.0364 24.5828ZM96.9891 27.5459V23.7277H97.5757V27.5459H96.9891ZM97.2874 23.0914C97.173 23.0914 97.0744 23.0524 96.9916 22.9745C96.9104 22.8966 96.8698 22.803 96.8698 22.6936C96.8698 22.5843 96.9104 22.4906 96.9916 22.4127C97.0744 22.3348 97.173 22.2959 97.2874 22.2959C97.4017 22.2959 97.4995 22.3348 97.5807 22.4127C97.6636 22.4906 97.705 22.5843 97.705 22.6936C97.705 22.803 97.6636 22.8966 97.5807 22.9745C97.4995 23.0524 97.4017 23.0914 97.2874 23.0914ZM99.2369 25.249V27.5459H98.6502V23.7277H99.217V24.3243H99.2667C99.3562 24.1304 99.4921 23.9746 99.6744 23.857C99.8567 23.7377 100.092 23.678 100.38 23.678C100.639 23.678 100.865 23.731 101.059 23.8371C101.253 23.9415 101.404 24.1006 101.511 24.3144C101.619 24.5265 101.673 24.795 101.673 25.1198V27.5459H101.086V25.1595C101.086 24.8596 101.008 24.6259 100.853 24.4585C100.697 24.2895 100.483 24.205 100.211 24.205C100.024 24.205 99.8567 24.2456 99.7092 24.3268C99.5633 24.408 99.4482 24.5265 99.3636 24.6823C99.2791 24.838 99.2369 25.027 99.2369 25.249ZM104.286 29.0573C104.003 29.0573 103.759 29.0208 103.555 28.9479C103.351 28.8766 103.182 28.7822 103.046 28.6645C102.911 28.5485 102.805 28.4242 102.725 28.2916L103.192 27.9635C103.245 28.0331 103.313 28.1127 103.394 28.2021C103.475 28.2933 103.586 28.372 103.727 28.4383C103.869 28.5062 104.056 28.5402 104.286 28.5402C104.594 28.5402 104.849 28.4656 105.049 28.3165C105.25 28.1673 105.35 27.9337 105.35 27.6155V26.8399H105.3C105.257 26.9095 105.196 26.9957 105.116 27.0985C105.039 27.1995 104.926 27.2899 104.778 27.3694C104.632 27.4473 104.435 27.4862 104.187 27.4862C103.878 27.4862 103.602 27.4133 103.356 27.2675C103.113 27.1217 102.92 26.9095 102.777 26.6311C102.636 26.3527 102.566 26.0146 102.566 25.6169C102.566 25.2258 102.635 24.8853 102.772 24.5953C102.91 24.3036 103.101 24.0782 103.347 23.9191C103.592 23.7584 103.875 23.678 104.197 23.678C104.445 23.678 104.642 23.7194 104.788 23.8023C104.936 23.8835 105.048 23.9763 105.126 24.0807C105.206 24.1834 105.267 24.268 105.31 24.3343H105.37V23.7277H105.937V27.6553C105.937 27.9834 105.862 28.2502 105.713 28.4557C105.565 28.6628 105.367 28.8145 105.116 28.9106C104.868 29.0084 104.591 29.0573 104.286 29.0573ZM104.266 26.9593C104.502 26.9593 104.7 26.9054 104.863 26.7977C105.025 26.69 105.149 26.535 105.233 26.3328C105.318 26.1307 105.36 25.8887 105.36 25.607C105.36 25.3319 105.319 25.0891 105.236 24.8786C105.153 24.6682 105.03 24.5033 104.868 24.384C104.705 24.2646 104.505 24.205 104.266 24.205C104.018 24.205 103.811 24.268 103.645 24.3939C103.481 24.5199 103.357 24.6889 103.274 24.901C103.193 25.1131 103.153 25.3485 103.153 25.607C103.153 25.8721 103.194 26.1066 103.277 26.3105C103.361 26.5126 103.486 26.6717 103.65 26.7877C103.815 26.9021 104.021 26.9593 104.266 26.9593ZM109.059 27.5459V22.455H110.779C111.178 22.455 111.505 22.5271 111.758 22.6713C112.014 22.8138 112.203 23.0068 112.325 23.2504C112.448 23.4941 112.509 23.7658 112.509 24.0658C112.509 24.3657 112.448 24.6383 112.325 24.8836C112.204 25.1289 112.017 25.3244 111.763 25.4703C111.51 25.6144 111.185 25.6865 110.789 25.6865H109.556V25.1396H110.769C111.043 25.1396 111.262 25.0924 111.428 24.998C111.594 24.9035 111.714 24.7759 111.788 24.6151C111.864 24.4527 111.903 24.2696 111.903 24.0658C111.903 23.8619 111.864 23.6797 111.788 23.5189C111.714 23.3582 111.593 23.2322 111.425 23.1411C111.258 23.0483 111.036 23.0019 110.759 23.0019H109.675V27.5459H109.059ZM114.009 22.455V27.5459H113.423V22.455H114.009ZM116.207 27.6354C115.965 27.6354 115.746 27.5898 115.549 27.4987C115.351 27.4059 115.195 27.2725 115.079 27.0985C114.963 26.9228 114.905 26.7107 114.905 26.4621C114.905 26.2433 114.948 26.066 115.034 25.9301C115.12 25.7926 115.235 25.6849 115.38 25.607C115.524 25.5291 115.683 25.4711 115.857 25.433C116.033 25.3932 116.209 25.3617 116.386 25.3385C116.618 25.3087 116.806 25.2863 116.951 25.2714C117.096 25.2548 117.203 25.2275 117.269 25.1894C117.337 25.1512 117.371 25.085 117.371 24.9905V24.9706C117.371 24.7253 117.304 24.5348 117.169 24.3989C117.037 24.263 116.835 24.195 116.565 24.195C116.285 24.195 116.066 24.2564 115.907 24.379C115.748 24.5016 115.636 24.6325 115.571 24.7718L115.014 24.5729C115.114 24.3409 115.246 24.1602 115.412 24.031C115.579 23.9001 115.762 23.8089 115.959 23.7575C116.158 23.7045 116.353 23.678 116.545 23.678C116.668 23.678 116.809 23.6929 116.968 23.7227C117.129 23.7509 117.284 23.8097 117.433 23.8992C117.584 23.9887 117.709 24.1238 117.808 24.3044C117.908 24.4851 117.957 24.727 117.957 25.0303V27.5459H117.371V27.0289H117.341C117.301 27.1117 117.235 27.2004 117.142 27.2948C117.049 27.3893 116.926 27.4697 116.772 27.536C116.618 27.6022 116.429 27.6354 116.207 27.6354ZM116.297 27.1084C116.529 27.1084 116.724 27.0628 116.884 26.9717C117.044 26.8805 117.165 26.7629 117.246 26.6187C117.329 26.4745 117.371 26.3229 117.371 26.1638V25.6269C117.346 25.6567 117.291 25.684 117.207 25.7089C117.124 25.7321 117.028 25.7528 116.918 25.771C116.811 25.7876 116.705 25.8025 116.603 25.8158C116.502 25.8274 116.42 25.8373 116.357 25.8456C116.204 25.8655 116.062 25.8978 115.929 25.9426C115.798 25.9856 115.692 26.0511 115.611 26.1389C115.531 26.2251 115.491 26.3428 115.491 26.4919C115.491 26.6958 115.567 26.8499 115.718 26.9543C115.87 27.057 116.063 27.1084 116.297 27.1084ZM120.689 23.7277V24.2249H118.71V23.7277H120.689ZM119.287 22.8129H119.873V26.4521C119.873 26.6179 119.897 26.7422 119.945 26.825C119.995 26.9062 120.058 26.9609 120.134 26.9891C120.212 27.0156 120.294 27.0289 120.38 27.0289C120.445 27.0289 120.498 27.0255 120.54 27.0189C120.581 27.0106 120.614 27.004 120.639 26.999L120.758 27.526C120.718 27.5409 120.663 27.5558 120.592 27.5708C120.52 27.5873 120.43 27.5956 120.321 27.5956C120.155 27.5956 119.993 27.56 119.834 27.4887C119.676 27.4175 119.545 27.3089 119.441 27.1631C119.338 27.0173 119.287 26.8333 119.287 26.6112V22.8129ZM123.271 23.7277V24.2249H121.213V23.7277H123.271ZM121.83 27.5459V23.2007C121.83 22.982 121.881 22.7997 121.984 22.6539C122.086 22.508 122.22 22.3986 122.384 22.3257C122.548 22.2528 122.721 22.2164 122.903 22.2164C123.048 22.2164 123.165 22.228 123.256 22.2512C123.348 22.2744 123.416 22.2959 123.46 22.3158L123.291 22.8229C123.261 22.8129 123.22 22.8005 123.167 22.7856C123.116 22.7707 123.048 22.7632 122.963 22.7632C122.769 22.7632 122.629 22.8121 122.543 22.9099C122.459 23.0077 122.416 23.151 122.416 23.3399V27.5459H121.83ZM125.487 27.6254C125.143 27.6254 124.84 27.5434 124.58 27.3794C124.322 27.2153 124.119 26.9858 123.974 26.6908C123.829 26.3958 123.757 26.0511 123.757 25.6567C123.757 25.259 123.829 24.9118 123.974 24.6151C124.119 24.3185 124.322 24.0882 124.58 23.9241C124.84 23.76 125.143 23.678 125.487 23.678C125.832 23.678 126.134 23.76 126.392 23.9241C126.652 24.0882 126.855 24.3185 126.999 24.6151C127.145 24.9118 127.218 25.259 127.218 25.6567C127.218 26.0511 127.145 26.3958 126.999 26.6908C126.855 26.9858 126.652 27.2153 126.392 27.3794C126.134 27.5434 125.832 27.6254 125.487 27.6254ZM125.487 27.0985C125.749 27.0985 125.965 27.0313 126.134 26.8971C126.303 26.7629 126.428 26.5864 126.509 26.3676C126.59 26.1489 126.631 25.9119 126.631 25.6567C126.631 25.4015 126.59 25.1637 126.509 24.9433C126.428 24.7229 126.303 24.5447 126.134 24.4088C125.965 24.2729 125.749 24.205 125.487 24.205C125.226 24.205 125.01 24.2729 124.841 24.4088C124.672 24.5447 124.547 24.7229 124.466 24.9433C124.385 25.1637 124.344 25.4015 124.344 25.6567C124.344 25.9119 124.385 26.1489 124.466 26.3676C124.547 26.5864 124.672 26.7629 124.841 26.8971C125.01 27.0313 125.226 27.0985 125.487 27.0985ZM128.113 27.5459V23.7277H128.68V24.3044H128.72C128.789 24.1155 128.915 23.9622 129.097 23.8445C129.28 23.7269 129.485 23.6681 129.714 23.6681C129.757 23.6681 129.811 23.6689 129.876 23.6705C129.94 23.6722 129.989 23.6747 130.022 23.678V24.2746C130.002 24.2696 129.957 24.2622 129.885 24.2522C129.816 24.2406 129.742 24.2348 129.664 24.2348C129.479 24.2348 129.313 24.2738 129.167 24.3517C129.023 24.4279 128.909 24.5339 128.824 24.6698C128.741 24.8041 128.7 24.9574 128.7 25.1297V27.5459H128.113ZM130.718 27.5459V23.7277H131.284V24.3243H131.334C131.414 24.1205 131.542 23.9622 131.719 23.8495C131.897 23.7352 132.11 23.678 132.358 23.678C132.61 23.678 132.82 23.7352 132.987 23.8495C133.156 23.9622 133.288 24.1205 133.382 24.3243H133.422C133.52 24.1271 133.667 23.9705 133.862 23.8545C134.058 23.7368 134.292 23.678 134.566 23.678C134.907 23.678 135.186 23.7849 135.403 23.9987C135.62 24.2108 135.729 24.5414 135.729 24.9905V27.5459H135.142V24.9905C135.142 24.7088 135.065 24.5074 134.911 24.3865C134.757 24.2655 134.576 24.205 134.367 24.205C134.098 24.205 133.89 24.2862 133.743 24.4486C133.595 24.6093 133.522 24.8132 133.522 25.0601V27.5459H132.925V24.9308C132.925 24.7137 132.855 24.5389 132.714 24.4063C132.573 24.2721 132.391 24.205 132.169 24.205C132.017 24.205 131.874 24.2456 131.742 24.3268C131.611 24.408 131.505 24.5207 131.424 24.6649C131.344 24.8074 131.304 24.9723 131.304 25.1595V27.5459H130.718Z" fill="#0A0E5F"/>
<path d="M142.564 7.07992C142.117 7.07992 141.708 6.97275 141.337 6.75842C140.972 6.53779 140.68 6.24467 140.46 5.87905C140.246 5.50713 140.139 5.10054 140.139 4.65928C140.139 4.21172 140.246 3.80513 140.46 3.43951C140.68 3.07389 140.972 2.78392 141.337 2.56959C141.708 2.34896 142.117 2.23865 142.564 2.23865C142.897 2.23865 143.209 2.30168 143.498 2.42776C143.794 2.55383 144.052 2.72719 144.272 2.94782C144.492 3.16845 144.665 3.4269 144.791 3.72318C144.917 4.01315 144.98 4.32518 144.98 4.65928C144.98 5.10054 144.87 5.50713 144.65 5.87905C144.436 6.24467 144.146 6.53779 143.781 6.75842C143.417 6.97275 143.011 7.07992 142.564 7.07992ZM142.564 6.53149C142.91 6.53149 143.221 6.44954 143.498 6.28564C143.781 6.12175 144.008 5.89796 144.178 5.6143C144.348 5.33063 144.433 5.01229 144.433 4.65928C144.433 4.31258 144.348 3.99739 144.178 3.71372C144.008 3.43005 143.781 3.20627 143.498 3.04237C143.221 2.87217 142.91 2.78707 142.564 2.78707C142.212 2.78707 141.894 2.87217 141.611 3.04237C141.328 3.20627 141.101 3.43005 140.931 3.71372C140.768 3.99739 140.686 4.31258 140.686 4.65928C140.686 5.00599 140.768 5.32117 140.931 5.60484C141.101 5.88851 141.328 6.11544 141.611 6.28564C141.894 6.44954 142.212 6.53149 142.564 6.53149ZM141.639 5.92633V3.37332H142.668C142.932 3.37332 143.149 3.44581 143.319 3.5908C143.489 3.72948 143.574 3.9312 143.574 4.19596C143.574 4.36616 143.536 4.5143 143.461 4.64037C143.391 4.76014 143.284 4.8547 143.14 4.92404L143.734 5.92633H143.121L142.611 5.02805H142.187V5.92633H141.639ZM142.187 4.53636H142.668C142.775 4.53636 142.86 4.50484 142.923 4.4418C142.986 4.37246 143.017 4.29051 143.017 4.19596C143.017 4.1014 142.986 4.0226 142.923 3.95957C142.86 3.89653 142.775 3.86501 142.668 3.86501H142.187V4.53636Z" fill="#868392"/>
<defs>
<linearGradient id="paint0_linear_40000777_32655" x1="21.5798" y1="-0.00289917" x2="21.5798" y2="14.3325" gradientUnits="userSpaceOnUse">
<stop stop-color="#FF9900"/>
<stop offset="1" stop-color="#FF4D00"/>
</linearGradient>
<linearGradient id="paint1_linear_40000777_32655" x1="12.8782" y1="3.73865" x2="12.8782" y2="27.9951" gradientUnits="userSpaceOnUse">
<stop stop-color="#FF9900"/>
<stop offset="1" stop-color="#FF4D00"/>
</linearGradient>
</defs>
</svg>
